<svg width="24" height="24" viewBox="0 0 24 24" fill="none" xmlns="http://www.w3.org/2000/svg">
<path fill-rule="evenodd" clip-rule="evenodd" d="M24 12C24 18.6274 18.6274 24 12 24C5.37258 24 0 18.6274 0 12C0 5.37258 5.37258 0 12 0C18.6274 0 24 5.37258 24 12ZM22.9091 12C22.9091 18.0249 18.0249 22.9091 12 22.9091C5.97508 22.9091 1.09091 18.0249 1.09091 12C1.09091 5.97508 5.97508 1.09091 12 1.09091C18.0249 1.09091 22.9091 5.97508 22.9091 12ZM10.2638 4.8H9.05523C8.45153 5.28009 8.45137 6.72006 9.05523 7.2C9.65909 7.67995 9.65997 9.12006 9.05523 9.6H10.2638C10.8682 8.64006 10.8682 7.68 10.2638 7.2C9.65954 6.72 9.65954 5.28005 10.2638 4.8ZM12.908 4.8H11.6994C11.0957 5.28009 11.0955 6.72006 11.6994 7.2C12.3033 7.67995 12.3041 9.12006 11.6994 9.6H12.908C13.5123 8.64006 13.5123 7.68 12.908 7.2C12.3037 6.72 12.3037 5.28005 12.908 4.8ZM14.3425 4.8H15.5511C14.9468 5.28005 14.9468 6.72 15.5511 7.2C16.1554 7.68 16.1554 8.64006 15.5511 9.6H14.3425C14.9473 9.12006 14.9464 7.67995 14.3425 7.2C13.7387 6.72006 13.7388 5.28009 14.3425 4.8ZM5.9604 11.7333C5.9604 12.4263 6.40094 13.0163 7.01722 13.2387V13.7782L5.88587 13.5147C5.45575 13.4145 5.0272 13.6823 4.92868 14.1128C4.83017 14.5433 5.09898 14.9735 5.5291 15.0737L7.01722 15.4203V16.2C7.01722 17.8568 8.36037 19.2 10.0172 19.2H14.5904C16.2472 19.2 17.5904 17.8568 17.5904 16.2V15.4055L19.0149 15.0737C19.4451 14.9735 19.7139 14.5433 19.6154 14.1128C19.5168 13.6823 19.0883 13.4145 18.6582 13.5147L17.5904 13.7634V13.2391C18.2072 13.017 18.6482 12.4266 18.6482 11.7333C18.6482 10.8496 17.9318 10.1333 17.0482 10.1333H7.5604C6.67675 10.1333 5.9604 10.8496 5.9604 11.7333ZM8.07493 16.1333V13.3333H16.5334V16.1333C16.5334 17.2378 15.638 18.1333 14.5334 18.1333H10.0749C8.97036 18.1333 8.07493 17.2378 8.07493 16.1333ZM16.5334 12.2666H17.0609C17.3535 12.2644 17.59 12.0265 17.59 11.7333C17.59 11.4388 17.3512 11.2 17.0567 11.2H7.5502C7.25565 11.2 7.01687 11.4388 7.01687 11.7333C7.01687 12.0265 7.25338 12.2644 7.546 12.2666H8.07493V12.2667H16.5334V12.2666Z" fill="#4299E1"/>
</svg>
