<svg width="24" height="24" viewBox="0 0 24 24" fill="none" xmlns="http://www.w3.org/2000/svg">
<path fill-rule="evenodd" clip-rule="evenodd" d="M6.75899 0H8.72859C7.74379 0.800084 7.74379 3.2 8.72859 4C9.71339 4.8 9.71339 6.4001 8.72859 8H6.75899C7.74449 7.2001 7.74306 4.7999 6.75899 4C5.77493 3.2001 5.77518 0.800142 6.75899 0ZM11.0663 0H13.0359C12.0511 0.800084 12.0511 3.2 13.0359 4C14.0207 4.8 14.0207 6.4001 13.0359 8H11.0663C12.0518 7.2001 12.0503 4.7999 11.0663 4C10.0822 3.2001 10.0825 0.800142 11.0663 0ZM17.3432 0H15.3736C14.3898 0.800142 14.3895 3.2001 15.3736 4C16.3576 4.7999 16.3591 7.2001 15.3736 8H17.3432C18.328 6.4001 18.328 4.8 17.3432 4C16.3584 3.2 16.3584 0.800084 17.3432 0ZM3.43606 14.0501C2.42945 13.6688 1.71384 12.6958 1.71384 11.5556C1.71384 10.0828 2.90774 8.88889 4.3805 8.88889H19.7236C21.1963 8.88889 22.3902 10.0828 22.3902 11.5556C22.3902 12.6964 21.6738 13.6699 20.6664 14.0508V14.939L22.3806 14.5307C23.0958 14.3603 23.8058 14.8039 23.9663 15.5214C24.1269 16.2389 23.6772 16.9587 22.962 17.129L20.6664 17.6758V21C20.6664 22.6569 19.3232 24 17.6664 24H6.43606C4.7792 24 3.43606 22.6569 3.43606 21V17.7005L1.03687 17.129C0.321628 16.9587 -0.128036 16.2389 0.0325124 15.5214C0.193061 14.8039 0.903025 14.3603 1.61826 14.5307L3.43606 14.9637V14.0501ZM5.16023 14.2222V20.2222C5.16023 21.3268 6.05567 22.2222 7.16023 22.2222H16.9445C18.0491 22.2222 18.9445 21.3268 18.9445 20.2222V14.2222H5.16023ZM3.43671 11.5555C3.43671 11.0646 3.83468 10.6666 4.3256 10.6666H19.7781C20.2691 10.6666 20.667 11.0646 20.667 11.5555C20.667 12.0464 20.2691 12.4444 19.7781 12.4444H4.3256C3.83468 12.4444 3.43671 12.0464 3.43671 11.5555Z" fill="#C4C4C4"/>
</svg>
