<svg width="149" height="20" viewBox="0 0 149 20" fill="none" xmlns="http://www.w3.org/2000/svg">
<title>GreeneRecipes</title>
<path d="M7.55711 13.12C8.65044 13.12 9.49044 13.36 10.0771 13.84C10.6771 14.32 10.9771 15.0067 10.9771 15.9C10.9771 16.9667 10.4838 17.8 9.49711 18.4C8.51044 19 7.21044 19.3 5.59711 19.3C3.93044 19.3 2.69044 19.08 1.87711 18.64C1.07711 18.2 0.677109 17.6 0.677109 16.84C0.677109 16.3867 0.830443 15.9933 1.13711 15.66C1.44378 15.3267 1.89711 15.0867 2.49711 14.94C2.04378 14.7533 1.68378 14.4933 1.41711 14.16C1.15044 13.8133 1.01711 13.4067 1.01711 12.94C1.01711 12.46 1.15711 12.0467 1.43711 11.7C1.71711 11.3533 2.10378 11.0933 2.59711 10.92C2.09044 10.6267 1.70378 10.2533 1.43711 9.8C1.17044 9.33333 1.03711 8.8 1.03711 8.2C1.03711 7.14667 1.44378 6.32 2.25711 5.72C3.08378 5.10667 4.20378 4.8 5.61711 4.8C6.33711 4.8 7.01044 4.88667 7.63711 5.06C7.81044 4.27333 8.14378 3.66 8.63711 3.22C9.14378 2.76667 9.82378 2.56667 10.6771 2.62L11.0371 4.58C10.9438 4.56667 10.8038 4.56 10.6171 4.56C10.1238 4.56 9.71044 4.64667 9.37711 4.82C9.05711 4.99333 8.83044 5.22667 8.69711 5.52C9.19044 5.81333 9.56378 6.18667 9.81711 6.64C10.0838 7.09333 10.2171 7.61333 10.2171 8.2C10.2171 9.24 9.80378 10.0667 8.97711 10.68C8.16378 11.28 7.04378 11.58 5.61711 11.58C4.96378 11.58 4.36378 11.52 3.81711 11.4C3.29711 11.5333 3.03711 11.8333 3.03711 12.3C3.03711 12.5667 3.13711 12.7733 3.33711 12.92C3.53711 13.0533 3.81711 13.12 4.17711 13.12H7.55711ZM5.61711 6.52C5.08378 6.52 4.64378 6.67333 4.29711 6.98C3.96378 7.28667 3.79711 7.68667 3.79711 8.18C3.79711 8.68667 3.96378 9.09333 4.29711 9.4C4.64378 9.70667 5.08378 9.86 5.61711 9.86C6.16378 9.86 6.60378 9.70667 6.93711 9.4C7.28378 9.09333 7.45711 8.68667 7.45711 8.18C7.45711 7.68667 7.28378 7.28667 6.93711 6.98C6.60378 6.67333 6.16378 6.52 5.61711 6.52ZM5.81711 17.42C6.75044 17.42 7.47044 17.3 7.97711 17.06C8.48378 16.8333 8.73711 16.54 8.73711 16.18C8.73711 15.9 8.61711 15.6867 8.37711 15.54C8.15044 15.4067 7.77044 15.34 7.23711 15.34H4.51711C3.41044 15.34 2.85711 15.64 2.85711 16.24C2.85711 16.6133 3.10378 16.9 3.59711 17.1C4.09044 17.3133 4.83044 17.42 5.81711 17.42ZM18.3285 4.8C18.7952 4.8 19.1552 4.87333 19.4085 5.02L19.0685 7.42C18.7618 7.22 18.3418 7.12 17.8085 7.12C17.1552 7.12 16.5885 7.36 16.1085 7.84C15.6418 8.30667 15.4085 8.96667 15.4085 9.82V15H12.6685V5H15.0485L15.2285 6.96C15.7752 5.52 16.8085 4.8 18.3285 4.8ZM30.2507 9.96C30.2507 10.3333 30.224 10.6933 30.1707 11.04H23.0907C23.3707 12.4533 24.204 13.16 25.5907 13.16C26.164 13.16 26.6374 13.0533 27.0107 12.84C27.384 12.6267 27.644 12.32 27.7907 11.92L30.0307 12.74C29.7107 13.54 29.1707 14.1533 28.4107 14.58C27.664 14.9933 26.724 15.2 25.5907 15.2C23.9374 15.2 22.6574 14.7467 21.7507 13.84C20.844 12.92 20.3907 11.64 20.3907 10C20.3907 8.36 20.8307 7.08667 21.7107 6.18C22.5907 5.26 23.8307 4.8 25.4307 4.8C26.9774 4.8 28.164 5.24667 28.9907 6.14C29.8307 7.03333 30.2507 8.30667 30.2507 9.96ZM25.4107 6.82C24.744 6.82 24.2107 7.01333 23.8107 7.4C23.424 7.78667 23.1774 8.36 23.0707 9.12H27.7307C27.624 8.37333 27.3707 7.80667 26.9707 7.42C26.5707 7.02 26.0507 6.82 25.4107 6.82ZM41.8913 9.96C41.8913 10.3333 41.8647 10.6933 41.8113 11.04H34.7313C35.0113 12.4533 35.8447 13.16 37.2313 13.16C37.8047 13.16 38.278 13.0533 38.6513 12.84C39.0247 12.6267 39.2847 12.32 39.4313 11.92L41.6713 12.74C41.3513 13.54 40.8113 14.1533 40.0513 14.58C39.3047 14.9933 38.3647 15.2 37.2313 15.2C35.578 15.2 34.298 14.7467 33.3913 13.84C32.4847 12.92 32.0313 11.64 32.0313 10C32.0313 8.36 32.4713 7.08667 33.3513 6.18C34.2313 5.26 35.4713 4.8 37.0713 4.8C38.618 4.8 39.8047 5.24667 40.6313 6.14C41.4713 7.03333 41.8913 8.30667 41.8913 9.96ZM37.0513 6.82C36.3847 6.82 35.8513 7.01333 35.4513 7.4C35.0647 7.78667 34.818 8.36 34.7113 9.12H39.3713C39.2647 8.37333 39.0113 7.80667 38.6113 7.42C38.2113 7.02 37.6913 6.82 37.0513 6.82ZM50.152 4.8C51.232 4.8 52.0986 5.11333 52.752 5.74C53.4186 6.36667 53.752 7.26667 53.752 8.44V15H51.012V9.24C51.012 7.72 50.4186 6.96 49.232 6.96C48.592 6.96 48.0453 7.18667 47.592 7.64C47.152 8.09333 46.932 8.78667 46.932 9.72V15H44.192V5H46.652L46.732 6.78C47.0653 6.12667 47.5253 5.63333 48.112 5.3C48.6986 4.96667 49.3786 4.8 50.152 4.8ZM65.9148 9.96C65.9148 10.3333 65.8881 10.6933 65.8348 11.04H58.7548C59.0348 12.4533 59.8681 13.16 61.2548 13.16C61.8281 13.16 62.3014 13.0533 62.6748 12.84C63.0481 12.6267 63.3081 12.32 63.4548 11.92L65.6948 12.74C65.3748 13.54 64.8348 14.1533 64.0748 14.58C63.3281 14.9933 62.3881 15.2 61.2548 15.2C59.6014 15.2 58.3214 14.7467 57.4148 13.84C56.5081 12.92 56.0548 11.64 56.0548 10C56.0548 8.36 56.4948 7.08667 57.3748 6.18C58.2548 5.26 59.4948 4.8 61.0948 4.8C62.6414 4.8 63.8281 5.24667 64.6548 6.14C65.4948 7.03333 65.9148 8.30667 65.9148 9.96ZM61.0748 6.82C60.4081 6.82 59.8748 7.01333 59.4748 7.4C59.0881 7.78667 58.8414 8.36 58.7348 9.12H63.3948C63.2881 8.37333 63.0348 7.80667 62.6348 7.42C62.2348 7.02 61.7148 6.82 61.0748 6.82ZM75.5154 10.88H68.4554V8.52H75.5154V10.88ZM84.3051 4.8C84.7717 4.8 85.1317 4.87333 85.3851 5.02L85.0451 7.42C84.7384 7.22 84.3184 7.12 83.7851 7.12C83.1317 7.12 82.5651 7.36 82.0851 7.84C81.6184 8.30667 81.3851 8.96667 81.3851 9.82V15H78.6451V5H81.0251L81.2051 6.96C81.7517 5.52 82.7851 4.8 84.3051 4.8ZM96.2273 9.96C96.2273 10.3333 96.2006 10.6933 96.1473 11.04H89.0673C89.3473 12.4533 90.1806 13.16 91.5673 13.16C92.1406 13.16 92.6139 13.0533 92.9873 12.84C93.3606 12.6267 93.6206 12.32 93.7673 11.92L96.0073 12.74C95.6873 13.54 95.1473 14.1533 94.3873 14.58C93.6406 14.9933 92.7006 15.2 91.5673 15.2C89.9139 15.2 88.6339 14.7467 87.7273 13.84C86.8206 12.92 86.3673 11.64 86.3673 10C86.3673 8.36 86.8073 7.08667 87.6873 6.18C88.5673 5.26 89.8073 4.8 91.4073 4.8C92.9539 4.8 94.1406 5.24667 94.9673 6.14C95.8073 7.03333 96.2273 8.30667 96.2273 9.96ZM91.3873 6.82C90.7206 6.82 90.1873 7.01333 89.7873 7.4C89.4006 7.78667 89.1539 8.36 89.0473 9.12H93.7073C93.6006 8.37333 93.3473 7.80667 92.9473 7.42C92.5473 7.02 92.0273 6.82 91.3873 6.82ZM103.108 4.8C104.428 4.8 105.455 5.06667 106.188 5.6C106.921 6.13333 107.421 6.84667 107.688 7.74L105.128 8.66C104.888 7.44667 104.241 6.84 103.188 6.84C102.401 6.84 101.795 7.11333 101.368 7.66C100.955 8.19333 100.748 8.98 100.748 10.02C100.748 11.06 100.961 11.8467 101.388 12.38C101.815 12.9 102.408 13.16 103.168 13.16C104.341 13.16 105.035 12.5667 105.248 11.38L107.728 12.18C107.515 13.1 107.015 13.8333 106.228 14.38C105.455 14.9267 104.448 15.2 103.208 15.2C101.555 15.2 100.275 14.7467 99.3679 13.84C98.4612 12.92 98.0079 11.64 98.0079 10C98.0079 8.36 98.4546 7.08667 99.3479 6.18C100.255 5.26 101.508 4.8 103.108 4.8ZM111.295 3.56C110.161 3.56 109.595 3.07333 109.595 2.1C109.595 1.11333 110.161 0.619999 111.295 0.619999C112.428 0.619999 112.995 1.11333 112.995 2.1C112.995 3.07333 112.428 3.56 111.295 3.56ZM112.655 15H109.915V5H112.655V15ZM121.439 4.8C122.772 4.8 123.819 5.26 124.579 6.18C125.339 7.08667 125.719 8.35333 125.719 9.98C125.719 11.62 125.339 12.9 124.579 13.82C123.819 14.74 122.772 15.2 121.439 15.2C120.719 15.2 120.092 15.04 119.559 14.72C119.026 14.3867 118.606 13.9333 118.299 13.36V19.2H115.559V5H117.979L118.079 6.98C118.372 6.31333 118.806 5.78667 119.379 5.4C119.966 5 120.652 4.8 121.439 4.8ZM120.619 13.1C121.366 13.1 121.946 12.8333 122.359 12.3C122.772 11.7667 122.979 11 122.979 10C122.979 9 122.772 8.23333 122.359 7.7C121.946 7.16667 121.366 6.9 120.619 6.9C119.952 6.9 119.412 7.13333 118.999 7.6C118.586 8.05333 118.352 8.70667 118.299 9.56V10.44C118.352 11.28 118.586 11.9333 118.999 12.4C119.412 12.8667 119.952 13.1 120.619 13.1ZM137.477 9.96C137.477 10.3333 137.451 10.6933 137.397 11.04H130.317C130.597 12.4533 131.431 13.16 132.817 13.16C133.391 13.16 133.864 13.0533 134.237 12.84C134.611 12.6267 134.871 12.32 135.017 11.92L137.257 12.74C136.937 13.54 136.397 14.1533 135.637 14.58C134.891 14.9933 133.951 15.2 132.817 15.2C131.164 15.2 129.884 14.7467 128.977 13.84C128.071 12.92 127.617 11.64 127.617 10C127.617 8.36 128.057 7.08667 128.937 6.18C129.817 5.26 131.057 4.8 132.657 4.8C134.204 4.8 135.391 5.24667 136.217 6.14C137.057 7.03333 137.477 8.30667 137.477 9.96ZM132.637 6.82C131.971 6.82 131.437 7.01333 131.037 7.4C130.651 7.78667 130.404 8.36 130.297 9.12H134.957C134.851 8.37333 134.597 7.80667 134.197 7.42C133.797 7.02 133.277 6.82 132.637 6.82ZM143.658 15.2C141.431 15.2 139.885 14.56 139.018 13.28L140.618 11.64C140.885 12.2133 141.265 12.62 141.758 12.86C142.265 13.0867 142.885 13.2 143.618 13.2C144.205 13.2 144.658 13.12 144.978 12.96C145.298 12.8 145.458 12.58 145.458 12.3C145.458 12.0733 145.305 11.88 144.998 11.72C144.705 11.56 144.191 11.4067 143.458 11.26C141.925 10.9533 140.845 10.5533 140.218 10.06C139.605 9.55333 139.298 8.87333 139.298 8.02C139.298 7.46 139.471 6.93333 139.818 6.44C140.165 5.94667 140.678 5.55333 141.358 5.26C142.038 4.95333 142.851 4.8 143.798 4.8C144.918 4.8 145.825 4.97333 146.518 5.32C147.211 5.65333 147.791 6.18667 148.258 6.92L146.558 8.36C146.265 7.82667 145.898 7.43333 145.458 7.18C145.031 6.92667 144.491 6.8 143.838 6.8C143.291 6.8 142.851 6.89333 142.518 7.08C142.198 7.26667 142.038 7.49333 142.038 7.76C142.038 8.04 142.198 8.27333 142.518 8.46C142.838 8.64667 143.405 8.82 144.218 8.98C145.671 9.27333 146.698 9.66 147.298 10.14C147.911 10.6067 148.218 11.26 148.218 12.1C148.218 13.0333 147.818 13.7867 147.018 14.36C146.231 14.92 145.111 15.2 143.658 15.2Z" fill="currentColor"/>
</svg>
